<mxfile host="app.diagrams.net" modified="2022-03-05T14:33:10.943Z" agent="5.0 (Windows NT 10.0; Win64; x64) AppleWebKit/537.36 (KHTML, like Gecko) Chrome/98.0.4758.102 Safari/537.36" etag="oGQ5ZlaKBZ7N3FsN_d9W" version="16.6.4" type="github">
  <diagram id="YuwCHeqFbcpFo9LPY-PJ" name="第 1 页">
    <mxGraphModel dx="1609" dy="513" grid="1" gridSize="10" guides="1" tooltips="1" connect="1" arrows="1" fold="1" page="1" pageScale="1" pageWidth="827" pageHeight="1169" math="0" shadow="0">
      <root>
        <mxCell id="0" />
        <mxCell id="1" parent="0" />
        <mxCell id="3_1g0eFo5Rt5CnOM_eIa-54" value="" style="rounded=0;whiteSpace=wrap;html=1;fontFamily=Times New Roman;fontSize=11;fillColor=#DCF0DB;strokeColor=none;" parent="1" vertex="1">
          <mxGeometry x="65" y="534.5" width="145" height="200" as="geometry" />
        </mxCell>
        <mxCell id="3_1g0eFo5Rt5CnOM_eIa-6" value="&lt;h3&gt;SQL模板构建&lt;/h3&gt;" style="rounded=1;whiteSpace=wrap;html=1;strokeColor=none;fillColor=#dae8fc;" parent="1" vertex="1">
          <mxGeometry x="510" y="480" width="120" height="60" as="geometry" />
        </mxCell>
        <mxCell id="MJIsDtoSRGlPTnnlGnTL-1" style="edgeStyle=orthogonalEdgeStyle;shape=connector;rounded=0;orthogonalLoop=1;jettySize=auto;html=1;labelBackgroundColor=default;fontFamily=Times New Roman;fontSize=11;fontColor=none;endArrow=classic;strokeColor=default;dashed=1;strokeWidth=2;" parent="1" edge="1">
          <mxGeometry relative="1" as="geometry">
            <mxPoint x="570" y="600" as="sourcePoint" />
            <mxPoint x="570" y="560" as="targetPoint" />
          </mxGeometry>
        </mxCell>
        <mxCell id="3_1g0eFo5Rt5CnOM_eIa-8" value="&lt;h3&gt;JAVA反射构建&lt;/h3&gt;" style="rounded=1;whiteSpace=wrap;html=1;strokeColor=none;fillColor=#FF6666;" parent="1" vertex="1">
          <mxGeometry x="510" y="614.5" width="120" height="60" as="geometry" />
        </mxCell>
        <mxCell id="3_1g0eFo5Rt5CnOM_eIa-17" style="edgeStyle=orthogonalEdgeStyle;rounded=0;orthogonalLoop=1;jettySize=auto;html=1;exitX=1;exitY=0.5;exitDx=0;exitDy=0;entryX=0;entryY=0.5;entryDx=0;entryDy=0;dashed=1;strokeWidth=2;" parent="1" source="3_1g0eFo5Rt5CnOM_eIa-13" target="3_1g0eFo5Rt5CnOM_eIa-6" edge="1">
          <mxGeometry relative="1" as="geometry" />
        </mxCell>
        <mxCell id="3_1g0eFo5Rt5CnOM_eIa-18" style="edgeStyle=orthogonalEdgeStyle;rounded=0;orthogonalLoop=1;jettySize=auto;html=1;exitX=1;exitY=0.5;exitDx=0;exitDy=0;strokeWidth=2;" parent="1" source="3_1g0eFo5Rt5CnOM_eIa-13" target="3_1g0eFo5Rt5CnOM_eIa-8" edge="1">
          <mxGeometry relative="1" as="geometry" />
        </mxCell>
        <mxCell id="3_1g0eFo5Rt5CnOM_eIa-13" value="&lt;h3&gt;抽象构建&lt;/h3&gt;" style="rounded=1;whiteSpace=wrap;html=1;strokeColor=none;fillColor=#FFF4C3;" parent="1" vertex="1">
          <mxGeometry x="294" y="555" width="120" height="60" as="geometry" />
        </mxCell>
        <mxCell id="3_1g0eFo5Rt5CnOM_eIa-15" style="edgeStyle=orthogonalEdgeStyle;rounded=0;orthogonalLoop=1;jettySize=auto;html=1;exitX=1;exitY=0.5;exitDx=0;exitDy=0;entryX=0;entryY=0.5;entryDx=0;entryDy=0;" parent="1" source="3_1g0eFo5Rt5CnOM_eIa-14" target="3_1g0eFo5Rt5CnOM_eIa-21" edge="1">
          <mxGeometry relative="1" as="geometry">
            <mxPoint x="210" y="585" as="targetPoint" />
          </mxGeometry>
        </mxCell>
        <mxCell id="3_1g0eFo5Rt5CnOM_eIa-14" value="&lt;h3&gt;配置&lt;/h3&gt;" style="rounded=1;whiteSpace=wrap;html=1;strokeColor=none;fillColor=#fff2cc;" parent="1" vertex="1">
          <mxGeometry x="-60" y="555" width="120" height="60" as="geometry" />
        </mxCell>
        <mxCell id="3_1g0eFo5Rt5CnOM_eIa-21" value="&lt;h3&gt;规则校验&lt;/h3&gt;" style="rounded=1;whiteSpace=wrap;html=1;strokeColor=none;fillColor=#FFF4C3;" parent="1" vertex="1">
          <mxGeometry x="77.5" y="555" width="120" height="60" as="geometry" />
        </mxCell>
        <mxCell id="3_1g0eFo5Rt5CnOM_eIa-53" value="&lt;h3&gt;&lt;font face=&quot;Times New Roman&quot;&gt;解耦&lt;/font&gt;&lt;/h3&gt;" style="text;html=1;strokeColor=none;fillColor=none;align=center;verticalAlign=middle;whiteSpace=wrap;rounded=0;fontFamily=Helvetica;fontSize=11;fontColor=default;" parent="1" vertex="1">
          <mxGeometry x="410" y="555" width="60" height="30" as="geometry" />
        </mxCell>
        <mxCell id="3_1g0eFo5Rt5CnOM_eIa-72" value="&lt;h3&gt;界面化配置&lt;/h3&gt;" style="text;html=1;strokeColor=none;fillColor=none;align=left;verticalAlign=middle;whiteSpace=wrap;rounded=0;fontFamily=Times New Roman;fontSize=11;fontColor=default;" parent="1" vertex="1">
          <mxGeometry x="-50" y="629.5" width="145" height="10" as="geometry" />
        </mxCell>
        <mxCell id="MJIsDtoSRGlPTnnlGnTL-3" value="&lt;h4&gt;结构一致&lt;/h4&gt;" style="text;html=1;strokeColor=none;fillColor=none;align=left;verticalAlign=middle;whiteSpace=wrap;rounded=0;dashed=1;labelBorderColor=none;fontFamily=Times New Roman;fontSize=11;fontColor=none;" parent="1" vertex="1">
          <mxGeometry x="580" y="555" width="60" height="30" as="geometry" />
        </mxCell>
        <mxCell id="MJIsDtoSRGlPTnnlGnTL-4" value="&lt;h4&gt;结果一致&lt;/h4&gt;" style="text;html=1;strokeColor=none;fillColor=none;align=left;verticalAlign=middle;whiteSpace=wrap;rounded=0;dashed=1;labelBorderColor=none;fontFamily=Times New Roman;fontSize=11;fontColor=none;" parent="1" vertex="1">
          <mxGeometry x="580" y="580" width="60" height="30" as="geometry" />
        </mxCell>
        <mxCell id="w1nu2tbLpvH_VEy28Hfz-4" value="&lt;h3&gt;表构建&lt;/h3&gt;" style="rounded=1;whiteSpace=wrap;html=1;strokeColor=none;fillColor=#fff2cc;" vertex="1" parent="1">
          <mxGeometry x="330" y="700" width="120" height="60" as="geometry" />
        </mxCell>
        <mxCell id="w1nu2tbLpvH_VEy28Hfz-13" value="&lt;h3&gt;&lt;h4&gt;&lt;ul&gt;&lt;li&gt;字段命名规范&lt;/li&gt;&lt;/ul&gt;&lt;ul&gt;&lt;li&gt;重复字段&lt;/li&gt;&lt;/ul&gt;&lt;ul&gt;&lt;li&gt;算子链规范&lt;/li&gt;&lt;/ul&gt;&lt;/h4&gt;&lt;/h3&gt;" style="text;html=1;strokeColor=none;fillColor=none;align=left;verticalAlign=middle;whiteSpace=wrap;rounded=0;fontColor=#000000;" vertex="1" parent="1">
          <mxGeometry x="65" y="650" width="177.5" height="40" as="geometry" />
        </mxCell>
      </root>
    </mxGraphModel>
  </diagram>
</mxfile>
